<?xml version="1.0" standalone="no"?><!DOCTYPE svg PUBLIC "-//W3C//DTD SVG 1.1//EN" "http://www.w3.org/Graphics/SVG/1.1/DTD/svg11.dtd"><svg class="icon" width="200px" height="200.00px" viewBox="0 0 1024 1024" version="1.1" xmlns="http://www.w3.org/2000/svg"><path d="M522.24 108.544c-225.28 0-409.6 184.32-409.6 409.6s184.32 409.6 409.6 409.6c225.28 0 409.6-184.32 409.6-409.6S747.52 108.544 522.24 108.544zM688.128 491.52l0 38.912-139.264 0 0 61.44 141.312 0 0 38.912-141.312 0 0 131.072-51.2 0 0-131.072-139.264 0L358.4 593.92l139.264 0 0-61.44-139.264 0L358.4 491.52 471.04 491.52l-133.12-221.184 57.344 0 126.976 217.088 124.928-217.088 57.344 0L573.44 491.52 688.128 491.52z" /></svg>